<svg version="1.1" xmlns="http://www.w3.org/2000/svg" xmlns:xlink="http://www.w3.org/1999/xlink" x="0px" y="0px"
	 width="23px" height="30px" viewBox="0 0 23 30" enable-background="new 0 0 23 30" xml:space="preserve">
	<g>
		<g>
			<path fill="#000000" d="M14.029,20.167c-1.998,0-3.874-0.776-5.286-2.188c-2.914-2.915-2.914-7.657,0-10.571
				c1.412-1.412,3.288-2.189,5.286-2.189c1.996,0,3.873,0.778,5.285,2.189c2.914,2.915,2.914,7.657,0,10.571
				C17.902,19.391,16.025,20.167,14.029,20.167z M14.029,6.178c-1.741,0-3.376,0.678-4.607,1.908c-2.54,2.54-2.54,6.673,0,9.212
				c1.23,1.23,2.866,1.908,4.607,1.908c1.739,0,3.375-0.678,4.605-1.908c2.54-2.54,2.54-6.672,0-9.212
				C17.404,6.856,15.769,6.178,14.029,6.178z"/>
		</g>
		<g>
			
				<rect x="4.039" y="17.115" transform="matrix(-0.7073 -0.7069 0.7069 -0.7073 -6.2016 39.7439)" fill="#000000" width="2.176" height="8.082"/>
		</g>
	</g>
</svg>